<svg xmlns="http://www.w3.org/2000/svg" viewBox="0 0 113.7 99.88"><defs><style>.cls-1{fill:#ffc107;stroke:#fff;stroke-miterlimit:10;}</style></defs><title>logo</title><g id="Layer_2" data-name="Layer 2"><g id="_35" data-name="35"><path class="cls-1" d="M58.57,36.11a17.84,17.84,0,0,1-.78-1.71C42,1.94,6.68,3,1.11,17.63c-4.34,11.18,14.4,37.74,57.46,18.48Z"/><path class="cls-1" d="M65.7,33.15C90,22.29,86.6,3.5,80.25,1c-8.37-3.26-23.85,9.32-15,31.21a2.66,2.66,0,0,1,.47.93Z"/><path class="cls-1" d="M42.47,62.41A151.13,151.13,0,0,0,32.24,81.67c-.15.31-.15.47-.3.78-.78,2-1.56,3.57-2,5a3.1,3.1,0,0,0,1.86,4c1.23.47,2.94,1.09,5,1.87.3.15.46.15.77.3A140.67,140.67,0,0,0,58.43,98.9a52.66,52.66,0,0,1-16-36.5Z"/><path class="cls-1" d="M110.45,53.87A31.82,31.82,0,0,0,92.17,36.79a6.57,6.57,0,0,0-2.48-.46,8.66,8.66,0,0,0-8.36,7.61A43.05,43.05,0,0,0,85.2,65.22,45.33,45.33,0,0,0,98.06,82.14a8.17,8.17,0,0,0,5,1.55A8.07,8.07,0,0,0,110.61,79a31,31,0,0,0-.16-25.16Z"/><path class="cls-1" d="M76.06,69.56a52.66,52.66,0,0,1-4.64-26.25,16.75,16.75,0,0,1,2-6.83c-.15,0-.46.15-.62.15-.31.16-.77.16-1.08.31a31.53,31.53,0,0,0-6.66,2.8C64,40.36,63.06,41,62,41.6c-5.26,3.57-9.6,9.78-10.22,16.31a43.25,43.25,0,0,0,3.56,21A42.61,42.61,0,0,0,67.86,95.18c3.25,2.64,9,4.2,13.79,4.2A30.22,30.22,0,0,0,97,94.56s.16,0,.16-.15c.3-.16.62-.47.93-.63.15-.15.3-.3.46-.3A18,18,0,0,1,92,90.36a52.49,52.49,0,0,1-16-20.81Z"/></g></g></svg>